<?xml version="1.0" standalone="no"?>
<!DOCTYPE svg PUBLIC "-//W3C//DTD SVG 20010904//EN"
 "http://www.w3.org/TR/2001/REC-SVG-20010904/DTD/svg10.dtd">
<svg version="1.0" xmlns="http://www.w3.org/2000/svg"
 width="666.000000pt" height="666.000000pt" viewBox="0 0 666.000000 666.000000"
 preserveAspectRatio="xMidYMid meet">

<g transform="translate(0.000000,666.000000) scale(0.100000,-0.100000)"
fill="#5a5a5a" stroke="none">
<path d="M4050 6489 c-126 -14 -304 -53 -405 -90 -69 -25 -100 -42 -134 -76
-43 -43 -44 -44 -37 -97 5 -43 3 -56 -11 -67 -27 -23 -53 -91 -53 -144 0 -89
50 -151 141 -175 21 -6 51 -24 66 -40 78 -83 547 -107 948 -49 245 35 374 58
395 71 44 28 81 197 60 274 -16 55 -41 81 -107 110 -44 20 -53 28 -53 49 0 33
-29 61 -77 74 -180 50 -523 53 -783 7 -210 -38 -285 -54 -373 -83 -80 -26 -99
-25 -81 5 51 82 354 158 679 171 157 6 170 7 173 25 7 37 -24 46 -147 45 -64
-1 -154 -6 -201 -10z m604 -205 c103 -16 137 -27 124 -40 -4 -4 -146 1 -316
10 -170 9 -335 14 -368 11 -51 -4 -54 -3 -24 5 114 32 420 40 584 14z m-814
-70 c-36 -14 -77 -30 -93 -36 -16 -6 -43 -7 -65 -3 l-37 8 33 13 c32 14 169
42 207 43 11 0 -9 -11 -45 -25z m-192 -109 c10 -3 6 -17 -15 -52 -15 -25 -32
-67 -39 -92 -14 -58 -41 -65 -84 -22 -24 23 -30 38 -30 71 0 43 31 115 52 122
11 4 70 -10 116 -27z"/>
<path d="M3279 5886 c-125 -44 -212 -151 -253 -313 -32 -123 -57 -332 -77
-628 -6 -99 -12 -181 -13 -182 -1 -1 -24 9 -51 22 -56 29 -78 31 -95 10 -19
-23 -5 -42 50 -66 92 -40 96 -49 103 -260 3 -101 13 -260 22 -353 9 -92 14
-170 11 -173 -13 -13 -26 12 -26 51 0 90 -48 163 -120 185 -150 45 -837 53
-1149 13 -62 -8 -86 -31 -60 -58 15 -14 29 -14 140 -2 80 8 250 13 479 12 351
0 531 -11 585 -36 34 -15 55 -56 55 -109 l0 -41 -72 6 c-189 16 -657 17 -840
3 l-187 -15 -52 -44 -51 -43 6 -325 c3 -179 9 -349 12 -378 l7 -54 -28 4 c-45
5 -65 43 -75 143 -18 171 -32 560 -25 692 6 128 6 132 -15 143 -18 10 -25 9
-39 -4 -31 -31 -15 -732 20 -914 13 -67 48 -107 113 -130 45 -16 50 -21 63
-65 8 -27 23 -53 36 -62 50 -32 322 -72 562 -82 216 -8 597 28 650 62 19 12
21 32 38 341 10 181 17 338 17 348 0 41 22 -2 41 -80 12 -43 25 -86 30 -96 10
-18 -12 -366 -31 -497 -16 -113 -86 -180 -230 -217 -80 -21 -218 -22 -735 -7
-353 10 -387 13 -477 36 -108 28 -124 35 -155 69 -59 63 -80 170 -113 588 -14
172 -14 638 1 833 21 286 87 440 211 491 69 29 73 32 73 57 0 21 -4 24 -35 23
-125 -3 -255 -160 -294 -354 -68 -346 -41 -1318 44 -1575 24 -72 68 -128 119
-155 51 -25 177 -57 281 -69 88 -10 659 -26 885 -24 200 2 316 36 404 118 73
68 90 118 101 288 5 78 12 168 16 199 l6 57 41 -30 c22 -16 63 -36 91 -44 75
-22 607 -49 841 -41 337 10 639 26 698 37 218 39 349 134 376 272 13 64 55
482 76 747 22 271 31 917 16 1090 -26 296 -100 483 -214 544 -68 37 -94 -11
-31 -59 76 -58 119 -145 156 -315 56 -259 20 -1370 -63 -1940 -14 -94 -38
-142 -92 -181 -99 -73 -199 -95 -484 -109 -403 -20 -601 -23 -852 -11 -425 20
-459 28 -519 117 -28 40 -33 55 -28 84 15 82 19 488 7 619 -22 229 -82 466
-148 580 l-26 45 7 175 c11 277 48 609 82 721 25 84 58 142 107 187 58 54 81
65 146 72 60 7 84 28 62 55 -16 19 -81 20 -132 2z m-229 -1493 c46 -154 61
-275 67 -528 6 -258 -3 -294 -31 -130 -46 268 -89 735 -68 735 5 0 19 -35 32
-77z"/>
<path d="M2176 5604 c-164 -30 -376 -116 -507 -205 -75 -50 -107 -112 -90
-169 6 -21 18 -43 26 -50 21 -17 19 -33 -10 -76 -51 -74 -57 -165 -16 -223 12
-16 45 -41 75 -55 45 -22 54 -30 65 -66 14 -49 34 -59 169 -91 238 -57 518
-35 709 55 93 45 155 102 195 183 29 59 32 73 32 161 0 119 -20 167 -102 248
-87 85 -215 124 -409 125 -171 1 -211 -12 -473 -152 -52 -28 -109 -59 -127
-70 -32 -20 -32 -20 -52 0 -39 39 -19 80 66 135 140 90 302 152 468 180 156
27 147 23 143 54 -3 24 -7 27 -43 29 -22 1 -76 -5 -119 -13z m-441 -504 c4 -6
2 -34 -4 -63 -5 -28 -12 -73 -16 -99 -5 -39 -10 -48 -26 -48 -11 0 -32 12 -46
26 -21 21 -25 32 -20 65 8 59 52 129 82 129 13 0 27 -5 30 -10z"/>
<path d="M4685 5410 c-44 -5 -226 -13 -405 -19 -179 -6 -350 -12 -380 -15 -30
-2 -120 3 -200 11 -80 8 -173 11 -207 8 -119 -12 -183 -70 -183 -165 0 -56 10
-73 41 -68 21 3 25 9 29 61 6 65 18 80 80 97 47 13 99 12 255 -4 72 -7 166
-12 210 -10 44 3 208 9 365 14 157 6 338 14 404 20 136 11 237 1 268 -27 23
-20 57 -89 58 -115 0 -15 -9 -18 -60 -18 -33 0 -152 -7 -263 -15 -239 -17
-786 -24 -943 -11 -141 11 -194 3 -234 -34 -25 -23 -30 -36 -30 -73 0 -24 -12
-76 -26 -113 -38 -98 -53 -271 -53 -616 -1 -197 -4 -288 -12 -288 -22 0 -49
22 -64 51 -41 78 -46 657 -9 941 5 41 3 48 -16 58 -37 20 -48 -4 -62 -130 -16
-152 -16 -743 0 -825 16 -76 50 -125 114 -160 29 -16 57 -40 67 -59 47 -90
100 -114 316 -146 378 -56 822 -52 1202 9 132 21 171 42 195 101 41 105 71
448 57 665 -4 66 -8 181 -8 255 -2 159 -19 255 -60 319 -16 25 -34 70 -40 99
-22 104 -75 172 -149 191 -57 15 -169 19 -257 11z"/>
<path d="M3240 2121 c-93 -30 -164 -94 -207 -186 l-28 -60 0 -225 0 -225 31
-65 c56 -119 144 -179 271 -188 90 -6 158 14 231 70 44 33 53 44 50 66 -4 39
-31 38 -84 -3 -116 -88 -246 -83 -347 13 -65 63 -77 114 -77 326 0 210 10 259
66 324 91 107 245 118 355 26 47 -39 82 -42 87 -7 4 30 -46 77 -118 111 -58
28 -178 40 -230 23z"/>
<path d="M101 2091 c-17 -31 -15 -862 2 -885 12 -16 29 -17 178 -14 152 3 168
5 219 29 80 37 125 81 162 157 l33 67 0 205 c0 200 -1 206 -26 260 -37 80 -81
125 -157 162 -66 33 -68 33 -233 36 -159 4 -168 3 -178 -17z m367 -80 c65 -29
117 -88 137 -155 21 -69 21 -343 0 -412 -20 -67 -72 -126 -137 -155 -46 -20
-69 -23 -173 -24 l-120 0 -3 375 c-1 206 0 381 3 389 4 10 30 12 123 9 95 -3
127 -8 170 -27z"/>
<path d="M5372 2063 c-7 -3 -18 -16 -23 -30 -22 -59 59 -102 95 -51 21 30 20
44 -4 68 -20 20 -42 24 -68 13z"/>
<path d="M1012 1838 c-48 -16 -116 -81 -143 -135 -22 -44 -24 -61 -24 -193 0
-165 7 -190 75 -264 99 -108 296 -99 384 17 45 58 56 109 56 247 0 137 -8 172
-52 237 -43 64 -104 95 -192 99 -39 2 -86 -2 -104 -8z m172 -78 c50 -24 93
-86 102 -147 3 -24 5 -87 2 -141 -3 -84 -7 -104 -31 -144 -56 -96 -196 -119
-275 -45 -54 50 -66 92 -66 227 0 135 12 177 66 227 50 47 134 56 202 23z"/>
<path d="M1676 1835 c-56 -20 -107 -65 -136 -121 -22 -43 -25 -62 -28 -185 -2
-79 1 -154 8 -177 28 -104 132 -182 244 -182 73 0 149 32 188 79 46 54 13 86
-47 46 -89 -61 -154 -71 -225 -35 -75 38 -100 100 -100 250 0 150 25 212 100
250 71 36 146 24 226 -37 55 -41 91 -5 46 48 -57 69 -182 98 -276 64z"/>
<path d="M2209 1822 c-39 -20 -62 -41 -84 -77 -30 -48 -30 -51 -33 -206 -4
-190 4 -228 62 -285 54 -54 97 -65 242 -62 100 3 118 6 128 21 21 34 -16 47
-136 47 -159 0 -206 30 -223 142 -9 56 0 76 23 55 77 -67 209 -62 285 11 51
48 70 97 65 173 -5 89 -39 142 -117 182 -74 37 -140 37 -212 -1z m191 -64 c54
-37 74 -72 74 -128 0 -57 -20 -91 -75 -128 -28 -20 -44 -23 -92 -20 -49 4 -62
9 -92 38 -81 78 -62 192 40 248 35 20 109 14 145 -10z"/>
<path d="M4879 1822 c-39 -20 -62 -41 -84 -77 -30 -48 -30 -51 -33 -206 -4
-190 4 -228 62 -285 54 -54 97 -65 242 -62 100 3 118 6 128 21 21 34 -16 47
-133 47 -158 0 -210 32 -226 142 -9 57 0 76 24 54 72 -65 209 -59 284 12 51
48 70 97 65 173 -5 89 -39 142 -117 182 -74 37 -140 37 -212 -1z m180 -57
c101 -52 116 -171 32 -250 -29 -27 -38 -30 -101 -30 -65 0 -71 2 -105 35 -81
78 -62 192 40 248 29 16 101 15 134 -3z"/>
<path d="M6156 1835 c-56 -20 -107 -65 -136 -121 -22 -43 -25 -62 -28 -185 -2
-79 1 -154 8 -177 27 -102 132 -182 238 -182 85 0 131 18 188 75 69 68 89 139
82 292 -7 162 -48 239 -153 289 -58 27 -138 31 -199 9z m172 -74 c83 -42 102
-90 102 -253 0 -143 -15 -188 -75 -234 -28 -21 -51 -29 -94 -32 -74 -5 -130
21 -168 80 -26 38 -28 50 -32 161 -3 127 6 181 41 230 45 63 152 86 226 48z"/>
<path d="M3712 1818 c-16 -16 -15 -23 4 -42 12 -13 39 -16 128 -16 101 0 117
-2 146 -22 48 -33 68 -66 76 -125 8 -61 0 -66 -49 -31 -45 33 -149 37 -203 10
-80 -41 -124 -113 -124 -204 0 -228 316 -302 422 -99 27 51 28 59 28 198 0 79
-5 164 -11 188 -15 61 -68 119 -126 139 -58 20 -272 23 -291 4z m239 -278 c47
-13 96 -63 109 -111 15 -54 -1 -107 -44 -149 -82 -79 -231 -36 -256 74 -20 91
51 187 145 195 6 1 26 -4 46 -9z"/>
<path d="M4374 1811 c-104 -48 -125 -184 -39 -259 18 -17 63 -40 99 -52 81
-27 113 -51 125 -97 38 -137 -140 -223 -232 -113 -20 24 -45 23 -60 -1 -7 -12
-4 -24 13 -47 58 -78 188 -95 272 -36 144 102 98 311 -79 360 -87 24 -118 51
-118 103 0 57 28 83 97 88 92 7 100 10 96 41 -3 26 -5 27 -68 29 -47 2 -77 -2
-106 -16z"/>
<path d="M5370 1811 c-6 -12 -10 -126 -10 -301 0 -287 4 -320 38 -320 40 0 42
13 42 320 0 217 -3 299 -12 308 -18 18 -46 14 -58 -7z"/>
<path d="M5735 1817 c-48 -19 -74 -41 -95 -83 -18 -35 -20 -60 -20 -286 0
-221 2 -249 16 -255 9 -3 24 -2 33 4 14 9 17 44 21 249 3 167 9 246 18 261 19
34 50 47 121 53 67 5 90 21 78 54 -5 13 -20 16 -74 15 -37 0 -82 -6 -98 -12z"/>
</g>
</svg>
